<!-- Generated by IcoMoon.io -->
<svg id="icon-share" version="1.1" xmlns="http://www.w3.org/2000/svg" width="28" height="20" viewBox="0 0 512 512">
<title>share2</title>
<g id="icomoon-ignore">
</g>
<path fill="#6481E7"
	  strock="#6481E7" 
	d="M352 80c0 22.58 9.369 42.96 24.415 57.506l-107.751 215.502c-4.126-0.657-8.353-1.008-12.664-1.008s-8.538 0.351-12.663 1.008l-107.751-215.502c15.045-14.546 24.414-34.926 24.414-57.506 0-44.183-35.817-80-80-80s-80 35.817-80 80 35.817 80 80 80c4.311 0 8.538-0.352 12.663-1.008l107.752 215.502c-15.045 14.546-24.415 34.926-24.415 57.506 0 44.183 35.818 80 80 80 44.184 0 80-35.817 80-80 0-22.58-9.369-42.96-24.414-57.506l107.751-215.502c4.125 0.656 8.352 1.008 12.663 1.008 44.184 0 80-35.817 80-80s-35.816-80-80-80c-44.182 0-80 35.817-80 80z"></path>
</svg>
