<!-- Generated by IcoMoon.io -->
<svg version="1.1" xmlns="http://www.w3.org/2000/svg" width="28" height="20" viewBox="0 0 72 64">
<title>users</title>
<path fill="#6481E7"
	  strock="#6481E7" 
	d="M48.462 48.785v-3.426c4.576-2.578 8.308-9.007 8.308-15.436 0-10.323 0-18.692-12.462-18.692s-12.462 8.369-12.462 18.692c0 6.429 3.732 12.858 8.308 15.436v3.426c-14.091 1.152-24.923 8.075-24.923 16.446h58.154c0-8.371-10.832-15.294-24.923-16.446z"></path>
<path fill="#6481E7"
	  strock="#6481E7"
	d="M20.45 49.708c3.457-2.259 7.755-3.977 12.487-5.026-0.941-1.111-1.794-2.351-2.531-3.689-1.901-3.452-2.906-7.254-2.906-10.993 0-5.378 0-10.457 1.913-14.61 1.857-4.032 5.196-6.531 9.951-7.468-1.057-4.78-3.871-7.922-11.364-7.922-12 0-12 8.059-12 18 0 6.191 3.594 12.382 8 14.864v3.299c-13.569 1.109-24 7.776-24 15.837h17.438c0.907-0.807 1.912-1.573 3.012-2.292z"></path>
</svg>
